<svg xmlns="http://www.w3.org/2000/svg" width="18" height="16" viewBox="0 0 18 16" fill="none">
<path fill-rule="evenodd" clip-rule="evenodd" d="M8.16673 0.65838C8.2243 0.475844 8.33855 0.316412 8.49291 0.203241C8.64726 0.0900697 8.83367 0.0290527 9.02507 0.0290527C9.21646 0.0290527 9.40288 0.0900697 9.55723 0.203241C9.71158 0.316412 9.82584 0.475844 9.8834 0.65838L11.4334 5.42505H16.4334C16.6316 5.41755 16.8269 5.47516 16.9893 5.58908C17.1517 5.70299 17.2724 5.86695 17.3328 6.05589C17.3933 6.24484 17.3902 6.44838 17.3241 6.63542C17.258 6.82247 17.1325 6.98273 16.9667 7.09171L12.9084 10.0334L14.4584 14.8084C14.5197 14.9903 14.5212 15.187 14.4628 15.3698C14.4044 15.5526 14.289 15.712 14.1336 15.8246C13.9782 15.9372 13.7908 15.9972 13.5989 15.9958C13.4069 15.9944 13.2205 15.9316 13.0667 15.8167L9.00007 12.8417L4.94173 15.7917C4.78799 15.9066 4.60154 15.9694 4.4096 15.9708C4.21767 15.9722 4.03031 15.9122 3.87488 15.7996C3.71945 15.687 3.60409 15.5276 3.54566 15.3448C3.48722 15.162 3.48877 14.9653 3.55007 14.7834L5.10007 10.0084L1.04173 7.06671C0.87597 6.95773 0.750444 6.79747 0.684335 6.61042C0.618225 6.42338 0.615168 6.21984 0.675631 6.03089C0.736093 5.84195 0.856749 5.67799 1.01917 5.56408C1.18158 5.45016 1.37683 5.39255 1.57507 5.40005H6.57507L8.16673 0.65838Z" fill="#FBAD39"/>
</svg>