<svg xmlns="http://www.w3.org/2000/svg" width="20" height="18" viewBox="0 0 20 18" fill="none">
  <path fill-rule="evenodd" clip-rule="evenodd" d="M9.16673 1.65838C9.2243 1.47584 9.33855 1.31641 9.49291 1.20324C9.64726 1.09007 9.83367 1.02905 10.0251 1.02905C10.2165 1.02905 10.4029 1.09007 10.5572 1.20324C10.7116 1.31641 10.8258 1.47584 10.8834 1.65838L12.4334 6.42505H17.4334C17.6316 6.41755 17.8269 6.47516 17.9893 6.58908C18.1517 6.70299 18.2724 6.86695 18.3328 7.05589C18.3933 7.24484 18.3902 7.44838 18.3241 7.63542C18.258 7.82247 18.1325 7.98273 17.9667 8.09171L13.9084 11.0334L15.4584 15.8084C15.5197 15.9903 15.5212 16.187 15.4628 16.3698C15.4044 16.5526 15.289 16.712 15.1336 16.8246C14.9782 16.9372 14.7908 16.9972 14.5989 16.9958C14.4069 16.9944 14.2205 16.9316 14.0667 16.8167L10.0001 13.8417L5.94173 16.7917C5.78799 16.9066 5.60154 16.9694 5.4096 16.9708C5.21767 16.9722 5.03031 16.9122 4.87488 16.7996C4.71945 16.687 4.60409 16.5276 4.54566 16.3448C4.48722 16.162 4.48877 15.9653 4.55007 15.7834L6.10007 11.0084L2.04173 8.06671C1.87597 7.95773 1.75044 7.79747 1.68433 7.61042C1.61823 7.42338 1.61517 7.21984 1.67563 7.03089C1.73609 6.84195 1.85675 6.67799 2.01917 6.56408C2.18158 6.45016 2.37683 6.39255 2.57507 6.40005H7.57507L9.16673 1.65838Z" stroke="#90A3BF" stroke-width="1.5" stroke-linecap="round" stroke-linejoin="round"/>
</svg>